HIERARCHY
ROOT Hips
{
	OFFSET 0.00000 0.00000 0.00000
	CHANNELS 6 Xposition Yposition Zposition Zrotation Yrotation Xrotation 
	JOINT LHipJoint
	{
		OFFSET 0 0 0
		CHANNELS 3 Zrotation Yrotation Xrotation
		JOINT LeftHip
		{
			OFFSET 2.36090 -1.39315 1.24752
			CHANNELS 3 Zrotation Yrotation Xrotation
			JOINT LeftKnee
			{
				OFFSET 2.06810 -5.68207 0.00000
				CHANNELS 3 Zrotation Yrotation Xrotation
				JOINT LeftAnkle
				{
					OFFSET 2.46631 -6.77613 0.00000
					CHANNELS 3 Zrotation Yrotation Xrotation
					JOINT LeftToe
					{
						OFFSET 0.26031 -0.71520 1.99545
						CHANNELS 3 Zrotation Yrotation Xrotation
						End Site
						{
							OFFSET 0.00000 -0.00000 1.05957
						}
					}
				}
			}
		}
	}
	JOINT RHipJoint
	{
		OFFSET 0 0 0
		CHANNELS 3 Zrotation Yrotation Xrotation
		JOINT RightHip
		{
			OFFSET -2.25243 -1.39315 1.24752
			CHANNELS 3 Zrotation Yrotation Xrotation
			JOINT RightKnee
			{
				OFFSET -2.17343 -5.97145 0.00000
				CHANNELS 3 Zrotation Yrotation Xrotation
				JOINT RightAnkle
				{
					OFFSET -2.52372 -6.93386 0.00000
					CHANNELS 3 Zrotation Yrotation Xrotation
					JOINT RightToe
					{
						OFFSET -0.22538 -0.61923 2.11447
						CHANNELS 3 Zrotation Yrotation Xrotation
						End Site
						{
							OFFSET -0.00000 -0.00000 1.10506
						}
					}
				}
			}
		}
	}
	JOINT lowerback
	{
		OFFSET 0 0 0
		CHANNELS 3 Zrotation Yrotation Xrotation
		JOINT Chest
		{
			OFFSET 0.01594 2.13103 0.08007
			CHANNELS 3 Zrotation Yrotation Xrotation
			JOINT Chest2
			{
				OFFSET 0.01393 2.09723 0.18338
				CHANNELS 3 Zrotation Yrotation Xrotation
				JOINT lowerneck
				{
					OFFSET 0 0 0
					CHANNELS 3 Zrotation Yrotation Xrotation
					JOINT Neck
					{
						OFFSET 0.05351 1.38915 0.32494
						CHANNELS 3 Zrotation Yrotation Xrotation
						JOINT Head
						{
							OFFSET 0.00711 1.45992 -0.21666
							CHANNELS 3 Zrotation Yrotation Xrotation
							End Site
							{
								OFFSET -0.00433 1.47702 -0.11056
							}
						}
					}
				}
				JOINT LeftCollar
				{
					OFFSET 0 0 0
					CHANNELS 3 Zrotation Yrotation Xrotation
					JOINT LeftShoulder
					{
						OFFSET 2.87198 0.92249 0.11132
CHANNELS 3 Zrotation Xrotation Yrotation
						JOINT LeftElbow
						{
OFFSET 0 -5.527310 0.000000
CHANNELS 3 Zrotation Xrotation Yrotation
							JOINT LeftWrist
							{
OFFSET 0 -3.110590 0.000000
CHANNELS 3 Zrotation Xrotation Yrotation
								JOINT lhand
								{
									OFFSET 0 0 0
CHANNELS 3 Zrotation Xrotation Yrotation
									JOINT LFingers
									{
OFFSET 0 -0.419630 0.000000
CHANNELS 3 Zrotation Xrotation Yrotation
										End Site
										{
OFFSET 0 -0.338310 0.000000
										}
									}
								}
								JOINT LThumb
								{
OFFSET 0 0.000000 0.000000
CHANNELS 3 Zrotation Xrotation Yrotation
									End Site
									{
OFFSET 0 -0.343480 0.343480
									}
								}
							}
						}
					}
				}
				JOINT RightCollar
				{
					OFFSET 0 0 0
					CHANNELS 3 Zrotation Yrotation Xrotation
					JOINT RightShoulder
					{
						OFFSET -2.94710 0.68072 0.32187
CHANNELS 3 Zrotation Xrotation Yrotation
						JOINT RightElbow
						{
OFFSET 0 -5.253960 -0.000000
CHANNELS 3 Zrotation Xrotation Yrotation
							JOINT RightWrist
							{
OFFSET 0 -3.105670 0.000000
CHANNELS 3 Zrotation Xrotation Yrotation
								JOINT rhand
								{
									OFFSET 0 0 0
CHANNELS 3 Zrotation Xrotation Yrotation
									JOINT RFingers
									{
OFFSET 0 -0.498680 0.000000
CHANNELS 3 Zrotation Xrotation Yrotation
										End Site
										{
OFFSET 0 -0.402040 0.000000
										}
									}
								}
								JOINT RThumb
								{
OFFSET 0 0.000000 0.000000
CHANNELS 3 Zrotation Xrotation Yrotation
									End Site
									{
OFFSET 0 -0.408180 0.408180
									}
								}
							}
						}
					}
				}
			}
		}
	}
}
MOTION
Frames: 5
Frame Time: 0.008333333333333333
3.682300 9.183200 4.873300 -12.602100 -3.830800 -30.869200 0.000000 0.000000 0.000000 16.179500 -4.641400 -61.244700 20.548400 19.992800 91.603500 -0.575700 -13.617800 8.199700 0.544200 -4.726400 -13.129700 0.000000 0.000000 0.000000 10.095800 -0.644000 -51.973000 -20.538700 -19.993000 91.575300 -0.040900 0.360500 -3.708600 -0.250700 3.221500 -8.896100 -5.595600 2.625000 18.083300 1.622900 2.618600 9.677800 4.416900 1.064500 -0.023100 -6.593200 -7.570200 -21.145600 8.564500 -11.771100 30.191800 2.347900 -4.642500 15.018800 0.000000 0.000000 0.000000 6.622600 -36.691000 -55.191600 84.437100 -59.882700 55.184300 7.554800 -48.345100 -14.447300 0.000000 0.000000 0.000000 -7.125000 0.000000 0.000000 -18.167900 43.768300 -0.572200 0.000000 0.000000 0.000000 -14.938500 -15.368600 34.686700 -101.974600 -59.451200 -70.351200 -1.242700 -44.716900 23.606600 0.000000 0.000000 0.000000 7.125000 0.000000 -0.000000 27.994900 51.340600 -4.682900
3.678860 9.186790 4.881452 -12.337264 -3.842916 -30.371015 0.000000 0.000000 0.000000 16.011220 -4.387633 -61.477077 20.513846 19.993697 91.502532 -0.627904 -14.124661 8.113690 0.651825 -5.157722 -14.360391 0.000000 0.000000 0.000000 9.850410 -0.426806 -52.719941 -20.626879 -19.990532 91.833106 -0.038955 0.320337 -3.624460 -0.248681 3.208711 -8.860499 -5.739872 2.670324 17.858403 1.530608 2.665045 9.543176 4.395211 1.089480 -0.058850 -6.537705 -7.487630 -21.425544 8.537650 -11.638794 30.167119 2.347302 -4.573393 15.049539 0.000000 0.000000 0.000000 6.638905 -36.564827 -55.017561 85.061159 -59.907082 55.724144 7.463255 -48.230221 -14.529870 0.000000 0.000000 0.000000 -7.125000 0.000000 0.000000 -18.275525 43.837183 -0.543555 0.000000 0.000000 0.000000 -14.733347 -15.401359 34.637113 -102.118125 -59.437738 -70.474755 -0.968440 -44.666939 23.758426 0.000000 0.000000 0.000000 7.125000 0.000000 0.000000 28.337220 51.429452 -4.814009
3.675419 9.192165 4.889010 -12.072081 -3.843926 -29.871045 0.000000 0.000000 0.000000 15.851914 -4.186473 -61.751202 20.466253 19.994793 91.363434 -0.664391 -14.505185 8.260867 0.696281 -5.333841 -14.863259 0.000000 0.000000 0.000000 9.594905 -0.224933 -53.469609 -20.712827 -19.987766 92.084614 -0.037110 0.293958 -3.542699 -0.241554 3.162602 -8.731882 -5.886227 2.716490 17.668064 1.433357 2.709706 9.378752 4.368265 1.115898 -0.143836 -6.703100 -7.371543 -21.319983 8.852970 -11.478970 29.833587 2.535564 -4.492039 14.898062 0.000000 0.000000 0.000000 6.653077 -36.389022 -54.858743 85.627206 -59.927101 56.213959 7.431458 -48.126448 -14.497556 0.000000 0.000000 0.000000 -7.125000 0.000000 0.000000 -18.292612 43.802884 -0.560228 0.000000 0.000000 0.000000 -14.520757 -15.395344 34.587180 -102.257335 -59.424573 -70.594641 -0.831723 -44.592782 23.694469 0.000000 0.000000 0.000000 7.125000 0.000000 0.000000 28.423941 51.351062 -4.772918
3.671150 9.195718 4.894558 -11.823320 -3.824762 -29.472538 0.000000 0.000000 0.000000 15.696025 -4.043356 -61.968702 20.413467 19.995892 91.209120 -0.686647 -14.774948 8.598894 0.679129 -5.266142 -14.669867 0.000000 0.000000 0.000000 9.343348 -0.070750 -54.110298 -20.796153 -19.984752 92.328534 -0.036071 0.289577 -3.494835 -0.231344 3.095580 -8.544980 -6.015482 2.758625 17.612706 1.342457 2.743319 9.235788 4.336990 1.137905 -0.273402 -6.847036 -7.266420 -21.215220 9.119818 -11.325922 29.498805 2.698829 -4.417742 14.740837 0.000000 0.000000 0.000000 6.667287 -36.204167 -54.687288 86.176019 -59.944243 56.688965 7.455361 -48.037047 -14.422921 0.000000 0.000000 0.000000 -7.125000 0.000000 0.000000 -18.246898 43.734236 -0.590827 0.000000 0.000000 0.000000 -14.310480 -15.409150 34.549305 -102.405199 -59.410413 -70.721973 -0.766762 -44.489238 23.564774 0.000000 0.000000 0.000000 7.125000 0.000000 0.000000 28.405451 51.226592 -4.677669
3.665167 9.193623 4.896577 -11.608893 -3.775549 -29.285784 0.000000 0.000000 0.000000 15.537766 -3.964975 -62.025170 20.363656 19.996790 91.063426 -0.695996 -14.948463 9.086458 0.600972 -4.962489 -13.801689 0.000000 0.000000 0.000000 9.110598 0.000900 -54.522697 -20.876404 -19.981536 92.563379 -0.036594 0.316203 -3.514580 -0.220125 3.020340 -8.335340 -6.107177 2.791533 17.800207 1.269910 2.755959 9.168550 4.302287 1.149273 -0.443403 -6.714282 -7.219227 -21.517526 8.926557 -11.215829 29.486240 2.611772 -4.370923 14.763349 0.000000 0.000000 0.000000 6.683816 -36.052789 -54.473684 86.750192 -59.960024 57.185953 7.531649 -47.965696 -14.381562 0.000000 0.000000 0.000000 -7.125000 0.000000 0.000000 -18.166497 43.703048 -0.602569 0.000000 0.000000 0.000000 -14.112806 -15.504733 34.536740 -102.575499 -59.393884 -70.868564 -0.705583 -44.350350 23.526032 0.000000 0.000000 0.000000 7.125000 0.000000 0.000000 28.438135 51.182690 -4.651492
